<svg width="45" height="45" viewBox="0 0 45 45" fill="none" xmlns="http://www.w3.org/2000/svg">
<path fill-rule="evenodd" clip-rule="evenodd" d="M28.2863 8.34812C31.112 10.0077 33.3051 12.8824 34.2382 17.0029C38.3036 17.9446 41.1117 21.105 42.2041 24.689C43.3897 28.5784 42.6196 33.1801 39.0979 36.263C37.0053 38.1799 34.2632 39.2318 31.4186 39.2122H11.0922C11.057 39.2122 11.0218 39.2109 10.9867 39.2084C1.1642 38.5158 0.583839 25.0044 9.24565 22.797C8.30806 19.0402 8.85179 15.7115 10.4063 13.0454C12.1745 10.0126 15.1678 7.97837 18.4131 7.1252C21.6584 6.27205 25.2623 6.57204 28.2863 8.34812ZM12.9979 14.5564C11.8086 16.5963 11.3372 19.298 12.3001 22.6029C13.2131 22.7334 14.1011 23.0118 14.9264 23.4323C15.6646 23.8083 15.9582 24.7116 15.5821 25.4497C15.2061 26.1879 14.3028 26.4814 13.5647 26.1054C12.8225 25.7273 11.9934 25.5254 11.1445 25.5174C4.49376 26.0376 4.49481 35.6948 11.1476 36.2122H31.4239H31.435V36.2122C33.5319 36.2277 35.548 35.4513 37.0821 34.0411C37.0917 34.0324 37.1014 34.0237 37.1112 34.0151C39.6086 31.8365 40.2373 28.5255 39.3345 25.5637C38.4684 22.7223 36.2529 20.3991 33.172 19.846C33.136 19.8492 33.0997 19.8511 33.063 19.8518C32.2245 19.8662 31.3998 20.0686 30.6463 20.4453C29.9053 20.8158 29.0043 20.5155 28.6338 19.7745C28.2634 19.0335 28.5637 18.1325 29.3047 17.762C29.9001 17.4643 30.5255 17.2374 31.1684 17.0845C30.3417 14.0275 28.689 12.0638 26.767 10.9349C24.5196 9.61499 21.7537 9.34894 19.1759 10.0266C16.5981 10.7043 14.3148 12.2978 12.9979 14.5564Z" fill="url(#paint0_linear_220_53907)"/>
<defs>
<linearGradient id="paint0_linear_220_53907" x1="7.51274" y1="0.770713" x2="22.7452" y2="39.2895" gradientUnits="userSpaceOnUse">
<stop stop-color="#5090FF"/>
<stop offset="1" stop-color="#085CED"/>
</linearGradient>
</defs>
</svg>
