<svg width="66" height="66" viewBox="0 0 66 66" fill="none" xmlns="http://www.w3.org/2000/svg">
<path d="M24.2603 17.0577C24.0767 17.0577 23.895 17.0646 23.7152 17.078C23.1485 17.1203 22.6549 16.6953 22.6125 16.1286C22.5702 15.562 22.9953 15.0683 23.562 15.026C23.7927 15.0088 24.0256 15 24.2603 15H24.7702C25.3384 15 25.7991 15.4606 25.7991 16.0289C25.7991 16.5971 25.3384 17.0577 24.7702 17.0577H24.2603Z" fill="url(#paint0_linear_642_71654)"/>
<path d="M28.0244 16.0289C28.0244 15.4606 28.485 15 29.0533 15H30.0731C30.6413 15 31.102 15.4606 31.102 16.0289C31.102 16.5971 30.6413 17.0577 30.0731 17.0577H29.0533C28.485 17.0577 28.0244 16.5971 28.0244 16.0289Z" fill="url(#paint1_linear_642_71654)"/>
<path d="M34.3562 15C33.7879 15 33.3273 15.4606 33.3273 16.0289C33.3273 16.5971 33.7879 17.0577 34.3562 17.0577H34.8661C35.0496 17.0577 35.2314 17.0646 35.4111 17.078C35.9778 17.1203 36.4715 16.6953 36.5138 16.1286C36.5561 15.562 36.131 15.0683 35.5644 15.026C35.3337 15.0088 35.1008 15 34.8661 15H34.3562Z" fill="url(#paint2_linear_642_71654)"/>
<path d="M39.4508 17.3461C39.8213 16.9153 40.471 16.8664 40.9018 17.2369C41.2552 17.5409 41.5853 17.871 41.8893 18.2244C42.2598 18.6552 42.211 19.3048 41.7801 19.6753C41.3493 20.0459 40.6997 19.997 40.3291 19.5662C40.0924 19.2909 39.8352 19.0338 39.5599 18.797C39.1291 18.4265 39.0802 17.7769 39.4508 17.3461Z" fill="url(#paint3_linear_642_71654)"/>
<path d="M19.5664 18.797C19.9973 18.4265 20.0461 17.7769 19.6756 17.3461C19.305 16.9153 18.6554 16.8664 18.2246 17.237C17.8712 17.5409 17.541 17.871 17.2371 18.2244C16.8665 18.6552 16.9154 19.3048 17.3462 19.6753C17.777 20.0459 18.4267 19.997 18.7972 19.5662C19.034 19.2909 19.2912 19.0338 19.5664 18.797Z" fill="url(#paint4_linear_642_71654)"/>
<path d="M42.9977 22.6122C43.5644 22.5698 44.0581 22.9949 44.1004 23.5615C44.1176 23.7922 44.1263 24.0251 44.1263 24.2598V24.7697C44.1263 24.8252 44.1219 24.8797 44.1135 24.9329H44.1359C49.0652 24.9329 52 27.8818 52 32.7966V37.0419C52 37.8254 51.3589 38.4664 50.5753 38.4664H44.1644C41.0159 38.4664 38.4657 41.0165 38.4657 44.1648V50.5754C38.4657 51.3589 37.8246 52 37.0411 52H32.7956C28.4504 52 24.9315 48.4813 24.9315 44.1363V44.1123C24.8789 44.1205 24.8251 44.1248 24.7702 44.1248H24.2603C24.0256 44.1248 23.7927 44.1161 23.562 44.0988C22.9953 44.0565 22.5702 43.5629 22.6126 42.9962C22.6549 42.4296 23.1486 42.0045 23.7152 42.0468C23.895 42.0602 24.0767 42.0671 24.2603 42.0671H24.7702C24.8251 42.0671 24.8789 42.0714 24.9315 42.0797L24.9315 32.7966C24.9315 28.4516 28.4504 24.9329 32.7956 24.9329L42.0814 24.9329C42.0729 24.8797 42.0685 24.8252 42.0685 24.7697V24.2598C42.0685 24.0763 42.0617 23.8945 42.0482 23.7148C42.0059 23.1481 42.431 22.6545 42.9977 22.6122Z" fill="url(#paint5_linear_642_71654)"/>
<path d="M17.0781 23.7148C17.1204 23.1481 16.6953 22.6545 16.1287 22.6122C15.562 22.5698 15.0683 22.9949 15.026 23.5615C15.0088 23.7922 15 24.0251 15 24.2598V24.7697C15 25.3379 15.4607 25.7985 16.0289 25.7985C16.5972 25.7985 17.0578 25.3379 17.0578 24.7697V24.2598C17.0578 24.0763 17.0647 23.8945 17.0781 23.7148Z" fill="url(#paint6_linear_642_71654)"/>
<path d="M16.0289 28.0237C16.5972 28.0237 17.0578 28.4843 17.0578 29.0525V30.0723C17.0578 30.6405 16.5972 31.1011 16.0289 31.1011C15.4607 31.1011 15 30.6405 15 30.0723V29.0525C15 28.4843 15.4607 28.0237 16.0289 28.0237Z" fill="url(#paint7_linear_642_71654)"/>
<path d="M17.0578 34.3552C17.0578 33.7869 16.5972 33.3263 16.0289 33.3263C15.4607 33.3263 15 33.7869 15 34.3552V34.865C15 35.0997 15.0088 35.3326 15.026 35.5633C15.0683 36.1299 15.562 36.555 16.1287 36.5127C16.6953 36.4704 17.1204 35.9767 17.0781 35.4101C17.0647 35.2303 17.0578 35.0486 17.0578 34.865V34.3552Z" fill="url(#paint8_linear_642_71654)"/>
<path d="M17.3462 39.4495C17.777 39.079 18.4267 39.1278 18.7972 39.5586C19.034 39.8339 19.2912 40.0911 19.5664 40.3278C19.9973 40.6983 20.0461 41.3479 19.6756 41.7787C19.305 42.2095 18.6554 42.2584 18.2246 41.8879C17.8712 41.5839 17.541 41.2538 17.2371 40.9004C16.8665 40.4696 16.9154 39.82 17.3462 39.4495Z" fill="url(#paint9_linear_642_71654)"/>
<path d="M43.452 42.4237C42.8838 42.4237 42.4231 42.8843 42.4231 43.4526V49.8632C42.4231 50.4314 42.8838 50.8921 43.452 50.8921C44.0203 50.8921 44.481 50.4314 44.481 49.8632V45.9365L49.8478 51.303C50.2496 51.7048 50.9011 51.7048 51.3029 51.303C51.7047 50.9012 51.7047 50.2498 51.3029 49.848L45.9361 44.4814H49.863C50.4313 44.4814 50.8919 44.0208 50.8919 43.4526C50.8919 42.8843 50.4313 42.4237 49.863 42.4237H43.452Z" fill="url(#paint10_linear_642_71654)"/>
<defs>
<linearGradient id="paint0_linear_642_71654" x1="32.3245" y1="11.3263" x2="32.3245" y2="51.0485" gradientUnits="userSpaceOnUse">
<stop stop-color="#FFBF00"/>
<stop offset="0.892445" stop-color="#FB9937"/>
</linearGradient>
<linearGradient id="paint1_linear_642_71654" x1="32.3245" y1="11.3263" x2="32.3245" y2="51.0485" gradientUnits="userSpaceOnUse">
<stop stop-color="#FFBF00"/>
<stop offset="0.892445" stop-color="#FB9937"/>
</linearGradient>
<linearGradient id="paint2_linear_642_71654" x1="32.3245" y1="11.3263" x2="32.3245" y2="51.0485" gradientUnits="userSpaceOnUse">
<stop stop-color="#FFBF00"/>
<stop offset="0.892445" stop-color="#FB9937"/>
</linearGradient>
<linearGradient id="paint3_linear_642_71654" x1="32.3245" y1="11.3263" x2="32.3245" y2="51.0485" gradientUnits="userSpaceOnUse">
<stop stop-color="#FFBF00"/>
<stop offset="0.892445" stop-color="#FB9937"/>
</linearGradient>
<linearGradient id="paint4_linear_642_71654" x1="32.3245" y1="11.3263" x2="32.3245" y2="51.0485" gradientUnits="userSpaceOnUse">
<stop stop-color="#FFBF00"/>
<stop offset="0.892445" stop-color="#FB9937"/>
</linearGradient>
<linearGradient id="paint5_linear_642_71654" x1="32.3245" y1="11.3263" x2="32.3245" y2="51.0485" gradientUnits="userSpaceOnUse">
<stop stop-color="#FFBF00"/>
<stop offset="0.892445" stop-color="#FB9937"/>
</linearGradient>
<linearGradient id="paint6_linear_642_71654" x1="32.3245" y1="11.3263" x2="32.3245" y2="51.0485" gradientUnits="userSpaceOnUse">
<stop stop-color="#FFBF00"/>
<stop offset="0.892445" stop-color="#FB9937"/>
</linearGradient>
<linearGradient id="paint7_linear_642_71654" x1="32.3245" y1="11.3263" x2="32.3245" y2="51.0485" gradientUnits="userSpaceOnUse">
<stop stop-color="#FFBF00"/>
<stop offset="0.892445" stop-color="#FB9937"/>
</linearGradient>
<linearGradient id="paint8_linear_642_71654" x1="32.3245" y1="11.3263" x2="32.3245" y2="51.0485" gradientUnits="userSpaceOnUse">
<stop stop-color="#FFBF00"/>
<stop offset="0.892445" stop-color="#FB9937"/>
</linearGradient>
<linearGradient id="paint9_linear_642_71654" x1="32.3245" y1="11.3263" x2="32.3245" y2="51.0485" gradientUnits="userSpaceOnUse">
<stop stop-color="#FFBF00"/>
<stop offset="0.892445" stop-color="#FB9937"/>
</linearGradient>
<linearGradient id="paint10_linear_642_71654" x1="32.3245" y1="11.3263" x2="32.3245" y2="51.0485" gradientUnits="userSpaceOnUse">
<stop stop-color="#FFBF00"/>
<stop offset="0.892445" stop-color="#FB9937"/>
</linearGradient>
</defs>
</svg>
