<svg width="66" height="66" viewBox="0 0 66 66" fill="none" xmlns="http://www.w3.org/2000/svg">
<path d="M16.8729 45.1398L18.5487 48.0385C18.8969 48.6487 19.3975 49.1282 19.9851 49.4769C21.6682 47.3374 22.8399 45.6955 23.5 44.5513C24.1699 43.3901 24.9933 41.5739 25.9702 39.1026C23.3376 38.7556 21.3425 38.5821 19.9851 38.5821C18.6825 38.5821 16.6875 38.7556 14 39.1026C14 39.7782 14.1741 40.4539 14.5223 41.0641L16.8729 45.1398Z" fill="#0066DA"/>
<path d="M46.0151 49.4769C46.6028 49.1282 47.1033 48.6487 47.4515 48.0385L48.148 46.8398L51.4779 41.0641C51.8261 40.4539 52.0002 39.7782 52.0002 39.1026C49.2972 38.7556 47.3058 38.5821 46.026 38.5821C44.6506 38.5821 42.6592 38.7556 40.0518 39.1026C41.0171 41.5874 41.8297 43.4037 42.4893 44.5513C43.1548 45.7091 44.3301 47.3509 46.0151 49.4769Z" fill="#EA4335"/>
<path d="M32.9998 26.8974C34.9473 24.542 36.2894 22.7258 37.0261 21.4487C37.6194 20.4204 38.2723 18.7785 38.9849 16.5231C38.3972 16.1744 37.7226 16 37.0261 16H28.9734C28.277 16 27.6023 16.1962 27.0146 16.5231C27.921 19.1098 28.6901 20.9508 29.3219 22.0459C30.0202 23.2562 31.2461 24.8734 32.9998 26.8974Z" fill="#00832D"/>
<path d="M40.03 39.1026H25.9704L19.9854 49.4769C20.573 49.8257 21.2477 50 21.9441 50H44.0564C44.7528 50 45.4275 49.8039 46.0152 49.4769L40.03 39.1026Z" fill="#2684FC"/>
<path d="M33 26.8975L27.0149 16.5231C26.4273 16.8718 25.9267 17.3513 25.5785 17.9616L14.5223 37.1411C14.1741 37.7513 14 38.427 14 39.1026H25.9702L33 26.8975Z" fill="#00AC47"/>
<path d="M45.9496 27.5513L40.4215 17.9616C40.0733 17.3513 39.5727 16.8718 38.9851 16.5231L33 26.8975L40.0298 39.1026H51.9783C51.9783 38.427 51.8041 37.7513 51.4559 37.1411L45.9496 27.5513Z" fill="#FFBA00"/>
</svg>
