<svg width="31" height="29" viewBox="0 0 31 29" fill="none" xmlns="http://www.w3.org/2000/svg">
<path fill-rule="evenodd" clip-rule="evenodd" d="M14.4333 1.78097C14.4805 1.01237 15.0924 0.430846 15.8 0.482086C21.5815 0.900708 25.2865 2.5008 27.5345 4.33444C29.7752 6.16206 30.5786 8.23401 30.5064 9.58577C30.5036 12.235 28.9172 14.4458 26.2829 16.0733C23.6489 17.7007 19.9372 18.7677 15.5966 19.1337C11.1082 19.5122 7.46006 18.8896 4.92409 17.6404C2.38578 16.39 0.926849 14.4889 0.926849 12.3137C0.926849 10.131 2.39432 8.41596 4.93212 7.29689C7.46409 6.18038 11.1068 5.63084 15.5865 5.78284C16.2954 5.80689 16.8521 6.45054 16.83 7.22046C16.8078 7.99038 16.2152 8.59503 15.5063 8.57097C11.21 8.4252 7.96768 8.96896 5.89828 9.88148C3.79874 10.8073 3.49519 11.7807 3.49519 12.3137C3.49519 12.945 3.91664 14.0811 5.98493 15.1C8.01063 16.0978 11.1938 16.7071 15.3977 16.3526C19.5111 16.0057 22.8168 15.0056 25.013 13.6487C27.2148 12.2883 27.9381 10.8403 27.9381 9.57873C27.9381 9.43081 27.9376 9.30378 27.9014 9.15698C27.86 8.98944 27.7826 8.76606 27.6465 8.5008C27.3758 7.97292 26.8765 7.28623 25.9922 6.56497C24.2511 5.14486 21.0697 3.65934 15.6292 3.2654C14.9215 3.21416 14.3861 2.54956 14.4333 1.78097Z" fill="#FFBF00"/>
<path fill-rule="evenodd" clip-rule="evenodd" d="M14.4333 1.78097C14.4805 1.01237 15.0924 0.430846 15.8 0.482086C21.5815 0.900708 25.2865 2.5008 27.5345 4.33444C29.7752 6.16206 30.5786 8.23401 30.5064 9.58577C30.5036 12.235 28.9172 14.4458 26.2829 16.0733C23.6489 17.7007 19.9372 18.7677 15.5966 19.1337C11.1082 19.5122 7.46006 18.8896 4.92409 17.6404C2.38578 16.39 0.926849 14.4889 0.926849 12.3137C0.926849 10.131 2.39432 8.41596 4.93212 7.29689C7.46409 6.18038 11.1068 5.63084 15.5865 5.78284C16.2954 5.80689 16.8521 6.45054 16.83 7.22046C16.8078 7.99038 16.2152 8.59503 15.5063 8.57097C11.21 8.4252 7.96768 8.96896 5.89828 9.88148C3.79874 10.8073 3.49519 11.7807 3.49519 12.3137C3.49519 12.945 3.91664 14.0811 5.98493 15.1C8.01063 16.0978 11.1938 16.7071 15.3977 16.3526C19.5111 16.0057 22.8168 15.0056 25.013 13.6487C27.2148 12.2883 27.9381 10.8403 27.9381 9.57873C27.9381 9.43081 27.9376 9.30378 27.9014 9.15698C27.86 8.98944 27.7826 8.76606 27.6465 8.5008C27.3758 7.97292 26.8765 7.28623 25.9922 6.56497C24.2511 5.14486 21.0697 3.65934 15.6292 3.2654C14.9215 3.21416 14.3861 2.54956 14.4333 1.78097Z" fill="url(#paint0_radial_2132_12218)"/>
<path d="M23.4348 18.8999C23.5604 18.8551 23.685 18.8095 23.8085 18.763C24.3475 18.6616 24.9072 18.9448 25.17 19.5013C25.4936 20.1868 25.2443 21.0273 24.6132 21.3788C18.9378 24.5396 12.7037 24.2695 8.33763 23.3744C6.15558 22.9271 4.31862 22.1534 3.02107 21.2294C2.33492 20.7408 1.83202 20.2375 1.48979 19.7334C1.15917 19.2465 0.927024 18.6793 0.927002 18.0897C0.926982 17.5384 1.0254 17.0178 1.21528 16.531C2.02295 17.4601 3.09005 18.2427 4.32728 18.8521C4.36862 18.8725 4.41019 18.8927 4.452 18.9127C5.40175 19.5827 6.89204 20.2393 8.81401 20.6333C12.6653 21.4229 18.0328 21.5969 23.4348 18.8999Z" fill="#FFBF00"/>
<path d="M23.4348 18.8999C23.5604 18.8551 23.685 18.8095 23.8085 18.763C24.3475 18.6616 24.9072 18.9448 25.17 19.5013C25.4936 20.1868 25.2443 21.0273 24.6132 21.3788C18.9378 24.5396 12.7037 24.2695 8.33763 23.3744C6.15558 22.9271 4.31862 22.1534 3.02107 21.2294C2.33492 20.7408 1.83202 20.2375 1.48979 19.7334C1.15917 19.2465 0.927024 18.6793 0.927002 18.0897C0.926982 17.5384 1.0254 17.0178 1.21528 16.531C2.02295 17.4601 3.09005 18.2427 4.32728 18.8521C4.36862 18.8725 4.41019 18.8927 4.452 18.9127C5.40175 19.5827 6.89204 20.2393 8.81401 20.6333C12.6653 21.4229 18.0328 21.5969 23.4348 18.8999Z" fill="url(#paint1_radial_2132_12218)"/>
<path d="M22.6955 13.3256C20.6268 12.7075 18.2265 12.2876 15.5944 12.0933C11.3513 11.7801 7.85903 12.1599 5.34948 13.0845C5.60547 13.3202 5.99445 13.5988 6.58197 13.8883C7.45665 14.3191 8.62755 14.6849 10.0874 14.8995C11.6241 14.7482 13.406 14.7277 15.4203 14.8764C15.6416 14.8927 15.8607 14.9107 16.0774 14.9303C18.7459 14.6409 20.9762 14.0644 22.6955 13.3256Z" fill="#FFBF00"/>
<path d="M22.6955 13.3256C20.6268 12.7075 18.2265 12.2876 15.5944 12.0933C11.3513 11.7801 7.85903 12.1599 5.34948 13.0845C5.60547 13.3202 5.99445 13.5988 6.58197 13.8883C7.45665 14.3191 8.62755 14.6849 10.0874 14.8995C11.6241 14.7482 13.406 14.7277 15.4203 14.8764C15.6416 14.8927 15.8607 14.9107 16.0774 14.9303C18.7459 14.6409 20.9762 14.0644 22.6955 13.3256Z" fill="url(#paint2_radial_2132_12218)"/>
<path d="M26.0031 17.7858C26.3456 17.6062 26.6757 17.4184 26.9929 17.2224C27.4896 16.9156 27.9594 16.5848 28.3969 16.2308C29.7375 17.4268 30.5041 18.8541 30.5067 20.4758C30.5796 21.6853 29.7617 23.5073 27.5237 25.1044C25.2769 26.7079 21.5755 28.1064 15.7987 28.4721C15.0907 28.517 14.4833 27.9299 14.442 27.1609C14.4007 26.3919 14.9412 25.7322 15.6493 25.6874C21.1392 25.3398 24.3591 24.0251 26.1134 22.7732C28.6021 20.9971 28.3753 19.3444 26.0031 17.7858Z" fill="#FFBF00"/>
<path d="M26.0031 17.7858C26.3456 17.6062 26.6757 17.4184 26.9929 17.2224C27.4896 16.9156 27.9594 16.5848 28.3969 16.2308C29.7375 17.4268 30.5041 18.8541 30.5067 20.4758C30.5796 21.6853 29.7617 23.5073 27.5237 25.1044C25.2769 26.7079 21.5755 28.1064 15.7987 28.4721C15.0907 28.517 14.4833 27.9299 14.442 27.1609C14.4007 26.3919 14.9412 25.7322 15.6493 25.6874C21.1392 25.3398 24.3591 24.0251 26.1134 22.7732C28.6021 20.9971 28.3753 19.3444 26.0031 17.7858Z" fill="url(#paint3_radial_2132_12218)"/>
<defs>
<radialGradient id="paint0_radial_2132_12218" cx="0" cy="0" r="1" gradientUnits="userSpaceOnUse" gradientTransform="translate(13.4286 7.67139) rotate(83.047) scale(11.1714 13.2683)">
<stop stop-color="#FB9937"/>
<stop offset="1" stop-color="#FFBF00"/>
</radialGradient>
<radialGradient id="paint1_radial_2132_12218" cx="0" cy="0" r="1" gradientUnits="userSpaceOnUse" gradientTransform="translate(19.1084 14.1627) rotate(96.4588) scale(14.4265 24.5464)">
<stop stop-color="#EB7805"/>
<stop offset="1" stop-color="#FFBF00"/>
</radialGradient>
<radialGradient id="paint2_radial_2132_12218" cx="0" cy="0" r="1" gradientUnits="userSpaceOnUse" gradientTransform="translate(19.1084 14.1627) rotate(96.4588) scale(14.4265 24.5464)">
<stop stop-color="#EB7805"/>
<stop offset="1" stop-color="#FFBF00"/>
</radialGradient>
<radialGradient id="paint3_radial_2132_12218" cx="0" cy="0" r="1" gradientUnits="userSpaceOnUse" gradientTransform="translate(19.1084 14.1627) rotate(96.4588) scale(14.4265 24.5464)">
<stop stop-color="#EB7805"/>
<stop offset="1" stop-color="#FFBF00"/>
</radialGradient>
</defs>
</svg>
