<svg width="66" height="66" viewBox="0 0 66 66" fill="none" xmlns="http://www.w3.org/2000/svg">
<path d="M49 27.8571L39.2407 17V25.5501C39.2407 26.8243 40.2736 27.8571 41.5478 27.8571H49Z" fill="url(#paint0_linear_642_71655)"/>
<path d="M18 33V19.307C18 18.0329 19.0329 17 20.307 17H39.2407M39.2407 17L49 27.8571M39.2407 17V25.5501C39.2407 26.8243 40.2736 27.8571 41.5478 27.8571H49M49 27.8571V33" stroke="url(#paint1_linear_642_71655)" stroke-width="2" stroke-linecap="round" stroke-linejoin="round"/>
<path d="M22.2412 51C21.2934 51 20.4827 50.8659 19.809 50.5978C19.1467 50.3296 18.6043 49.9497 18.1818 49.4581C17.7708 48.9665 17.4682 48.3799 17.274 47.6983C17.0913 47.0056 17 46.2291 17 45.3687V39H19.4836V45.5363C19.4836 45.9721 19.5292 46.3911 19.6206 46.7933C19.7119 47.1844 19.8661 47.5307 20.083 47.8324C20.3 48.1341 20.5855 48.3799 20.9395 48.5698C21.2934 48.7486 21.7388 48.838 22.2754 48.838C22.8007 48.838 23.2403 48.7486 23.5943 48.5698C23.9483 48.3799 24.228 48.1341 24.4336 47.8324C24.6505 47.5196 24.799 47.1676 24.8789 46.7765C24.9703 46.3743 25.0159 45.9609 25.0159 45.5363V39H27.4824V45.3687C27.4824 46.2067 27.3853 46.9777 27.1912 47.6816C27.0085 48.3743 26.7059 48.9665 26.2834 49.4581C25.8723 49.9497 25.3299 50.3296 24.6562 50.5978C23.994 50.8659 23.1889 51 22.2412 51Z" fill="url(#paint2_linear_642_71655)"/>
<path d="M34.7952 39C35.115 39 35.4347 39.0112 35.7544 39.0335C36.0741 39.0447 36.3881 39.0838 36.6965 39.1508C37.0048 39.2179 37.3016 39.3184 37.5871 39.4525C37.884 39.5754 38.158 39.7486 38.4093 39.9721C38.8089 40.3296 39.0944 40.7598 39.2657 41.2626C39.4369 41.7542 39.5169 42.257 39.5055 42.7709C39.494 43.4637 39.3684 44.0503 39.1286 44.5307C38.9003 45.0112 38.5862 45.419 38.1866 45.7542C37.8212 46.0447 37.3987 46.2514 36.9191 46.3743L39.6082 50.8659H36.8335L34.3842 46.6089H32.4487V50.8659H29.9651V39H34.7952ZM34.8124 44.5642C35.1207 44.5642 35.4119 44.5363 35.6859 44.4804C35.9599 44.4246 36.194 44.3352 36.3881 44.2123C36.5937 44.0782 36.7535 43.905 36.8677 43.6927C36.9933 43.4693 37.0619 43.1899 37.0733 42.8547C37.0847 42.4972 37.0333 42.2067 36.9191 41.9832C36.8049 41.7598 36.6451 41.5866 36.4395 41.4637C36.2454 41.3408 36.0113 41.2626 35.7373 41.229C35.4747 41.1844 35.1835 41.162 34.8638 41.162H32.4487V44.5642H34.8124Z" fill="url(#paint3_linear_642_71655)"/>
<path d="M44.0566 48.7207H50V50.8659H41.5901V39H44.0566V48.7207Z" fill="url(#paint4_linear_642_71655)"/>
<defs>
<linearGradient id="paint0_linear_642_71655" x1="32.5151" y1="15.4114" x2="32.5151" y2="32.5885" gradientUnits="userSpaceOnUse">
<stop stop-color="#FFBF00"/>
<stop offset="0.892445" stop-color="#FB9937"/>
</linearGradient>
<linearGradient id="paint1_linear_642_71655" x1="32.5151" y1="15.4114" x2="32.5151" y2="32.5885" gradientUnits="userSpaceOnUse">
<stop stop-color="#FFBF00"/>
<stop offset="0.892445" stop-color="#FB9937"/>
</linearGradient>
<linearGradient id="paint2_linear_642_71655" x1="22.5" y1="22" x2="32.4515" y2="50.6914" gradientUnits="userSpaceOnUse">
<stop stop-color="#FFBF00"/>
<stop offset="0.892445" stop-color="#FB9937"/>
</linearGradient>
<linearGradient id="paint3_linear_642_71655" x1="22.5" y1="22" x2="32.4515" y2="50.6914" gradientUnits="userSpaceOnUse">
<stop stop-color="#FFBF00"/>
<stop offset="0.892445" stop-color="#FB9937"/>
</linearGradient>
<linearGradient id="paint4_linear_642_71655" x1="22.5" y1="22" x2="32.4515" y2="50.6914" gradientUnits="userSpaceOnUse">
<stop stop-color="#FFBF00"/>
<stop offset="0.892445" stop-color="#FB9937"/>
</linearGradient>
</defs>
</svg>
